<svg width="1110" height="256" viewBox="0 0 1110 256" fill="none" xmlns="http://www.w3.org/2000/svg">
<g opacity="0.6">
<path fill-rule="evenodd" clip-rule="evenodd" d="M642.156 -566.171C728.819 -548.693 822.127 -542.827 879.5 -480.031C947.077 -406.065 993.398 -306.571 970.19 -207.13C946.232 -104.474 854.934 -29.9464 761.025 27.6125C665.115 86.3972 557.973 124.384 448.101 112.867C324.61 99.9237 185.678 67.0142 132.399 -38.2776C80.4933 -140.855 152.087 -262.485 203.496 -370.529C244.336 -456.359 300.144 -538.933 389.604 -578.832C470.905 -615.093 557.081 -583.328 642.156 -566.171Z" stroke="white"/>
<path fill-rule="evenodd" clip-rule="evenodd" d="M704.688 -606.789C817.51 -582.376 878.591 -473.23 924.092 -372.568C963.717 -284.907 966.932 -187.247 937.076 -92.6813C908.12 -0.967538 855.67 91.8108 764.46 133.041C679.275 171.548 593.024 111.439 501.444 104.24C380.172 94.7079 230.946 168.601 150.441 84.778C68.0366 -1.02246 105.634 -146.571 151.575 -260.049C192.899 -362.123 286.549 -429.193 382.996 -489.655C483.429 -552.616 591.7 -631.238 704.688 -606.789Z" stroke="white"/>
<path fill-rule="evenodd" clip-rule="evenodd" d="M721.691 -582.878C831.525 -583.243 944.052 -520.004 982.52 -423.7C1018.84 -332.765 931.741 -240.503 896.361 -145.598C865.795 -63.6082 862.867 29.153 792.558 85.858C712.593 150.35 602.788 196.927 506.926 168.483C414.185 140.966 398.755 29.4211 345.139 -46.8965C285.03 -132.456 142.03 -197.092 178.867 -298.481C216.142 -401.076 381.127 -369.48 481.435 -422.033C570.334 -468.609 622.575 -582.548 721.691 -582.878Z" stroke="white"/>
<path fill-rule="evenodd" clip-rule="evenodd" d="M672.477 -597.179C776.672 -581.288 853.229 -496.806 893.845 -404.93C930.25 -322.578 889.095 -232.452 873.799 -141.774C855.099 -30.9218 893.141 108.065 796.048 174.807C698.382 241.943 574.619 165.267 461.259 141.807C346.697 118.098 198.967 135.959 142.14 39.4778C85.48 -56.7206 160.413 -178.43 211.053 -282.997C251.056 -365.601 316.269 -428.024 394.256 -481.125C480.426 -539.798 571.468 -612.585 672.477 -597.179Z" stroke="white"/>
<path fill-rule="evenodd" clip-rule="evenodd" d="M649.19 -556.186C727.622 -529.61 820.897 -533.53 872.136 -471.78C929.072 -403.164 935.175 -310.77 927.409 -220.895C917.266 -103.52 919.534 31.1561 822.07 107.584C718.198 189.037 569.924 189.405 445.282 157.175C325.767 126.272 225.368 47.551 175.085 -59.7121C129.016 -157.985 160.99 -270.337 194.881 -376.977C227.411 -479.338 257.125 -603.944 361.074 -644.948C461.427 -684.534 550.44 -589.646 649.19 -556.186Z" stroke="white"/>
<path fill-rule="evenodd" clip-rule="evenodd" d="M629.761 -505.535C738.551 -486.49 893.252 -531.563 940.086 -437.126C987.43 -341.662 848.434 -248.736 808.054 -146.021C775.076 -62.1331 808.159 51.6322 728.733 100.503C649.141 149.476 556.948 79.8423 467.01 63.8234C370.92 46.709 244.769 82.1157 192.25 4.95071C139.494 -72.563 217.984 -173.551 242.12 -266.603C267.367 -363.936 245.114 -488.109 334.42 -543.155C423.967 -598.35 528.45 -523.27 629.761 -505.535Z" stroke="white"/>
<path fill-rule="evenodd" clip-rule="evenodd" d="M645.106 -540.362C723.703 -519.41 780.988 -467.092 831.525 -407.007C894.057 -332.662 971.52 -259.227 963.966 -161.263C955.274 -48.5281 898.301 76.2167 790.348 127.04C686.102 176.117 577.851 101.958 470.525 71.0423C375.765 43.7462 269.861 35.0664 211.065 -39.8253C146.794 -121.691 114.686 -233.872 152.205 -334.417C188.089 -430.578 293.7 -483.224 391.823 -524.222C473.754 -558.455 561.812 -562.567 645.106 -540.362Z" stroke="white"/>
<path fill-rule="evenodd" clip-rule="evenodd" d="M640.693 -555.033C732.716 -533.8 788.723 -455.279 836.732 -378.482C885.301 -300.788 925.84 -216.452 909.954 -124.312C892.361 -22.2783 847.284 91.9411 747.985 136.238C652.537 178.817 554.238 112.443 460.241 76.3033C387.209 48.2244 320.764 14.0872 274.203 -45.9205C221.022 -114.461 166.6 -192.205 184.668 -278.86C203.55 -369.422 283.352 -436.893 366.181 -487.055C450.138 -537.9 547.536 -576.527 640.693 -555.033Z" stroke="white"/>
</g>
</svg>
